<svg width="13" height="16" viewBox="0 0 13 16" fill="none" xmlns="http://www.w3.org/2000/svg">
<path d="M11.4286 6.28571C11.4286 4.92174 10.8867 3.61364 9.92226 2.64917C8.95779 1.68469 7.64968 1.14286 6.28571 1.14286C4.92174 1.14286 3.61364 1.68469 2.64916 2.64917C1.68469 3.61364 1.14286 4.92174 1.14286 6.28571C1.14286 8.39543 2.83086 11.1451 6.28571 14.4389C9.74057 11.1451 11.4286 8.39543 11.4286 6.28571ZM6.28571 16C2.09486 12.1909 0 8.952 0 6.28571C0 4.61864 0.662243 3.01984 1.84104 1.84104C3.01984 0.662243 4.61864 0 6.28571 0C7.95279 0 9.55159 0.662243 10.7304 1.84104C11.9092 3.01984 12.5714 4.61864 12.5714 6.28571C12.5714 8.952 10.4766 12.1909 6.28571 16Z" fill="white"/>
<path d="M6.28573 8.00002C6.74039 8.00002 7.17642 7.81941 7.49792 7.49792C7.81941 7.17642 8.00002 6.74039 8.00002 6.28573C8.00002 5.83107 7.81941 5.39504 7.49792 5.07355C7.17642 4.75206 6.74039 4.57145 6.28573 4.57145C5.83107 4.57145 5.39504 4.75206 5.07355 5.07355C4.75206 5.39504 4.57145 5.83107 4.57145 6.28573C4.57145 6.74039 4.75206 7.17642 5.07355 7.49792C5.39504 7.81941 5.83107 8.00002 6.28573 8.00002V8.00002ZM6.28573 9.14287C5.52797 9.14287 4.80124 8.84186 4.26543 8.30604C3.72961 7.77022 3.42859 7.04349 3.42859 6.28573C3.42859 5.52797 3.72961 4.80124 4.26543 4.26543C4.80124 3.72961 5.52797 3.42859 6.28573 3.42859C7.04349 3.42859 7.77022 3.72961 8.30604 4.26543C8.84186 4.80124 9.14287 5.52797 9.14287 6.28573C9.14287 7.04349 8.84186 7.77022 8.30604 8.30604C7.77022 8.84186 7.04349 9.14287 6.28573 9.14287Z" fill="white"/>
</svg>
