<svg width="20" height="16" viewBox="0 0 20 16" fill="none" xmlns="http://www.w3.org/2000/svg">
<path d="M16.6154 0C17.4314 0 18.2141 0.324175 18.7911 0.90121C19.3681 1.47825 19.6923 2.26087 19.6923 3.07692V12.9231C19.6923 13.7391 19.3681 14.5218 18.7911 15.0988C18.2141 15.6758 17.4314 16 16.6154 16H3.07692C2.26087 16 1.47825 15.6758 0.90121 15.0988C0.324175 14.5218 0 13.7391 0 12.9231V3.07692C0 2.26087 0.324175 1.47825 0.90121 0.90121C1.47825 0.324175 2.26087 0 3.07692 0H16.6154ZM18.4615 4.87508L10.1588 9.76123C10.0803 9.80732 9.99253 9.83542 9.90187 9.8435C9.8112 9.85159 9.71988 9.83947 9.63446 9.808L9.53354 9.76123L1.23077 4.87754V12.9231C1.23077 13.4127 1.42527 13.8823 1.7715 14.2285C2.11772 14.5747 2.58729 14.7692 3.07692 14.7692H16.6154C17.105 14.7692 17.5746 14.5747 17.9208 14.2285C18.267 13.8823 18.4615 13.4127 18.4615 12.9231V4.87508ZM16.6154 1.23077H3.07692C2.58729 1.23077 2.11772 1.42527 1.7715 1.77149C1.42527 2.11772 1.23077 2.58729 1.23077 3.07692V3.44862L9.84615 8.51692L18.4615 3.44615V3.07692C18.4615 2.58729 18.267 2.11772 17.9208 1.77149C17.5746 1.42527 17.105 1.23077 16.6154 1.23077Z" fill="#FF5D23"/>
</svg>
